<?xml version="1.0" encoding="utf-8"?>
<!-- Generator: Adobe Illustrator 23.1.1, SVG Export Plug-In . SVG Version: 6.00 Build 0)  -->
<svg version="1.1" id="Layer_1" xmlns="http://www.w3.org/2000/svg" xmlns:xlink="http://www.w3.org/1999/xlink" x="0px" y="0px"
	 viewBox="0 0 1024 1024" style="enable-background:new 0 0 1024 1024;" xml:space="preserve">
<style type="text/css">
	.st0{display:none;}
	.st1{display:inline;fill:#92140C;}
	.st2{fill:#C0392B;}
	.st3{fill:#92140C;}
	.st4{fill:#D35400;}
	.st5{fill:#FFFFFF;}
</style>
<g class="st0">
	<rect class="st1" width="1024" height="1024"/>
</g>
<g>
	<path class="st2" d="M118.3,558.5h817.5c12.8,0,23.3-10.5,23.3-23.3v-10.4c0-12.8-10.5-23.3-23.3-23.3H118.3
		c-12.8,0-23.3,10.5-23.3,23.3v10.4C95,548.1,105.5,558.5,118.3,558.5z"/>
	<path class="st3" d="M522.3,1004.8c217.6,0,394-182.8,394-408.3h-788C128.2,822,304.6,1004.8,522.3,1004.8z"/>
	<path class="st4" d="M804.7,468.3H619.6c0,0-14.2-123.4-38-142.4l-7.1-2.4c0,0-9.5,109.2-66.5,142.4H270.6V371
		c0,0,4.7-80.7,47.5-90.2c0,0,4.7,90.2,28.5,128.2c0,0,14.2-175.6,80.7-218.4c0,0-19,90.2,47.5,166.2c0,0-47.5-251.6,113.9-337.1
		c0,0-4.7,76,14.2,132.9s61.7,90.2,61.7,90.2s9.5,57,4.7,113.9c0,0,52.2,0,61.7-104.4c0,0,38,113.9,19,194.6c0,0,23.7-9.5,38-57
		C788.1,390,778.6,461.2,804.7,468.3z"/>
</g>
<g id="forks">
	<g id="_x31_u8Zpg_2_">
		<g>
			<g>
				<path class="st5" d="M592.4,662.5c0,2.8-0.1,5.6,0,8.4c0,0.8-0.3,1.4-0.9,2c-7.7,7.7-15.3,15.4-23.1,23.1
					c-3.5,3.4-1.9,9.2,2.2,10.5c2.8,0.9,5.2,0.2,7.2-1.9c6.5-6.5,13-13,19.5-19.5c1.2-1.2,2.4-2.4,3.6-3.6c0.4-0.3,0.9-0.6,1.4-0.7
					c2.4-0.1,4.8,0,7.2,0c0.3,0,0.6,0.1,1.1,0.2c-0.3,0.4-0.5,0.7-0.7,0.9c-10.8,10.8-21.5,21.6-32.4,32.3c-1.7,1.7-4,2.7-6.4,3.1
					c-0.6,0.1-1.1,0.3-1.7,0.3c-2.1,0.1-4.1-0.3-6-1.2c-0.6-0.3-0.9,0.1-1.2,0.4c-2.7,2.7-5.4,5.4-8.1,8.1
					c-16.2,16.2-32.4,32.4-48.6,48.5c-0.5,0.5-0.8,0.9-0.6,1.8c0.4,2.4-0.1,4.7-1.4,6.7c-0.2,0.3-0.5,0.6-0.7,0.8
					c-11.8,11.8-23.6,23.6-35.5,35.5c-1.5,1.5-3.3,2.2-5.3,2.2c-1.5,0-3.1,0.2-4.5-0.7c-2.8-1.7-4.8-3.9-4.9-7.5
					c-0.1-2,0.2-3.8,1.4-5.5c0.3-0.4,0.5-0.8,0.8-1.1c11.8-11.8,23.6-23.6,35.5-35.4c1.5-1.5,3.3-2.2,5.4-2.2c0.9,0,1.9,0.2,2.8,0.2
					c0.3,0,0.7-0.4,1-0.6c4.3-4.3,8.6-8.6,12.9-12.9c1-1,1.9-2,2.9-2.9c0.5-0.5,0.6-0.9,0-1.4c-2.7-2.7-5.4-5.4-8.1-8.1
					c-2.5-2.5-4.9-5-7.4-7.4c-0.9-0.9-1.5-2.2-2.9-2.3c-1.4-0.1-2.8-0.1-4.3-0.1c-0.2,0-0.5,0.1-0.7,0.2c-1.9,0.3-3.9,0.5-5.8,0.8
					c-2.5,0.5-5,0.7-7.5,0.6c-1.8-0.1-3.6,0-5.4-0.4c-2.9-0.5-5.7-1.4-8.1-3.2c-1-0.8-2.2-1.5-3.1-2.5c-2-2.1-4-4.4-5.9-6.5
					c-1.5-1.7-3.1-3.3-4.6-5c-1.7-2-3.4-4-5-6c-2-2.5-4-5-5.9-7.6c-1.3-1.7-2.6-3.4-3.8-5.2c-0.8-1.3-1.4-2.7-2.2-4.1
					c-0.2-0.3-0.5-0.6-0.7-0.9c0-1.3,0-2.5,0-3.8c0.2-0.2,0.4-0.4,0.6-0.7c0.7-0.9,1.3-1.9,2.1-2.7c6.7-6.8,13.5-13.5,20.2-20.2
					c0.6-0.6,1.4-1.2,2.1-1.7c1.1-0.7,2.3-1.1,3.6-0.8c2.3,0.5,4.4,1.7,6.3,3c1.9,1.2,3.7,2.6,5.5,3.9c2.2,1.7,4.4,3.3,6.6,5.1
					c2.2,1.8,4.4,3.6,6.5,5.5c2.6,2.3,5.2,4.7,7.8,7.1c1.3,1.2,2.5,2.6,3.8,3.7c2.2,2,3.7,4.4,4.7,7.2c0.9,2.5,1.4,5.2,1.5,7.9
					c0.1,1.9-0.1,3.8-0.3,5.7c-0.2,1.8-0.5,3.5-0.7,5.3c-0.2,1.7-0.4,3.3-0.7,5c0,0.3,0,0.5,0,0.8c-0.2,2-0.2,3.8,1.7,5.1
					c0.2,0.1,0.3,0.4,0.5,0.6c5.1,5.1,10.3,10.3,15.4,15.4c0.9,0.9,0.9,0.9,1.9,0c4.8-4.8,9.5-9.5,14.3-14.3
					c6.2-6.2,12.5-12.5,18.7-18.7c0.6-0.6,0.8-1.2,0.4-2c-0.8-1.4-0.8-3-0.9-4.6c-0.1-0.8,0.1-1.6,0.3-2.4c0.2-1,0.4-2,0.8-3
					c0.8-2,2.2-3.5,3.7-5c10.3-10.3,20.6-20.6,30.8-30.9c0.2-0.2,0.3-0.5,0.5-0.8C592,662.5,592.2,662.5,592.4,662.5z M464.6,675.1
					c-1,0-1.6,0.6-1.9,1.3c-0.2,0.4,0,1.2,0.3,1.6c1.7,1.9,3.5,3.8,5.3,5.6c1.6,1.6,3.4,3.2,5,4.8c1.8,1.8,3.5,3.6,5.2,5.4
					c1.7,1.7,3.4,3.2,5.1,4.9c1.7,1.6,3.3,3.3,5,5c0.7,0.7,1.6,0.8,2.2,0.3c0.9-0.8,1.1-1.7,0.5-2.6c-0.2-0.3-0.5-0.7-0.9-1
					c-3.5-3.5-6.9-6.9-10.4-10.4c-2-2-4-3.9-6-5.9c-2.8-2.8-5.5-5.6-8.3-8.4C465.4,675.5,465,675.3,464.6,675.1z M456.3,683.4
					c0,0.1-0.1,0.1-0.1,0.2c-0.9-0.1-1.5,0.4-1.8,1.1c-0.2,0.5-0.1,1.2,0.2,1.6c1.7,1.9,3.6,3.8,5.4,5.7c1.6,1.6,3.3,3.1,4.9,4.8
					c1.8,1.8,3.5,3.6,5.3,5.4c1.6,1.6,3.2,3,4.8,4.6c1.8,1.7,3.5,3.5,5.3,5.3c0.8,0.8,1.6,0.8,2.4,0.1c0.7-0.6,0.8-1.6,0.2-2.4
					c-0.2-0.3-0.5-0.6-0.8-0.9c-4.6-4.6-9.2-9.2-13.8-13.8c-3.5-3.5-7.1-7.1-10.6-10.6C457.3,683.9,456.8,683.7,456.3,683.4z
					 M448,691.6c0,0.1-0.1,0.1-0.1,0.2c-0.9-0.1-1.4,0.4-1.7,1.1c-0.3,0.7-0.1,1.3,0.5,1.8c4.4,4.4,8.8,8.8,13.3,13.3
					c4,4,8.1,8.1,12.1,12.1c0.8,0.8,1.8,0.8,2.6,0c0.6-0.6,0.6-1.8-0.1-2.5c-1.3-1.4-2.7-2.7-4.1-4.1c-3.3-3.3-6.7-6.7-10-10
					c-3.7-3.7-7.4-7.4-11.1-11.1C449,692.2,448.4,692,448,691.6z M464.4,805.4c-2.2,0.1-3.7,1.6-3.6,3.6c0.1,1.5,2,3.4,3.5,3.3
					c2-0.2,3.7-1.4,3.5-3.9C467.7,806.6,466.3,805.4,464.4,805.4z"/>
				<path class="st5" d="M583.2,820.6c-2.6,0.3-4.7-1-6.5-2.8c-3.4-3.4-6.8-6.8-10.2-10.2c-4.8-4.8-9.6-9.6-14.4-14.4
					c-2.5-2.5-5-4.9-7.5-7.4c-1.9-1.9-3-4.2-2.8-6.8c0.1-1.4-0.3-2.1-1.2-3c-2.1-2-4-4-6-6c-2-2-4-4-6-6.1c-0.6-0.7-1.3-1.3-2-1.9
					c-0.4-0.4-0.4-0.8,0-1.2c1.6-1.5,3.1-3.1,4.7-4.7c0.6-0.6,1.1-0.6,1.6,0c4.7,4.7,9.4,9.5,14.2,14.2c0.6,0.6,1.1,0.9,2,0.8
					c1.8-0.1,3.7-0.1,5.2,1c0.8,0.6,1.6,1.3,2.4,2c0.7,0.6,1.5,1.3,2.2,2c1.7,1.7,3.3,3.5,5,5.2c1.8,1.8,3.7,3.5,5.5,5.3
					c1.7,1.7,3.2,3.4,4.9,5.1c1.8,1.8,3.6,3.5,5.4,5.3c1.6,1.6,3.2,3.4,4.8,5c1.4,1.4,2.9,2.8,4.4,4.2c1.3,1.2,2,2.8,2.5,4.5
					c0.5,2.1,0.2,4.1-0.9,5.9C589.1,818.9,586.8,820.8,583.2,820.6z M580.1,812.7c1.6,0.2,3.6-1.5,3.5-3.3c0-1.6-1.3-3.3-3.3-3.3
					c-1.4,0-3.3,1.4-3.3,3.3C577,811.3,578.7,812.9,580.1,812.7z"/>
			</g>
		</g>
	</g>
</g>
</svg>
